<svg xmlns:xlink="http://www.w3.org/1999/xlink" xmlns="http://www.w3.org/2000/svg" viewBox="0 0 381 87.48722309501186" preserveAspectRatio="xMidYMid meet" class="css-1uxicuq" id="ccgfhgdg" width="381"  height="87.48722309501186" ><defs id="SvgjsDefs4783"></defs><g id="SvgjsG4784"
                                                                                                                                                                                                                                                                         transform="matrix(1.458158024036188,0,0,1.458158024036188,-2.9123206578738507,-2.916316048072376)" fill="#8E0B0B"><title xmlns="http://www.w3.org/2000/svg">video-game-controller-joystick-buttons</title><path xmlns="http://www.w3.org/2000/svg" d="M25,43H21V39a1,1,0,0,0-1-1H16a1,1,0,0,0-1,1v4H11a1,1,0,0,0-1,1v4a1,1,0,0,0,1,1h4v4a1,1,0,0,0,1,1h4a1,1,0,0,0,1-1V49h4a1,1,0,0,0,1-1V44A1,1,0,0,0,25,43Zm-1,4H20a1,1,0,0,0-1,1v4H17V48a1,1,0,0,0-1-1H12V45h4a1,1,0,0,0,1-1V40h2v4a1,1,0,0,0,1,1h4Z" fill="#8E0B0B"></path><path xmlns="http://www.w3.org/2000/svg" d="M47.764,30.1A16.618,16.618,0,0,0,46,30H35V26H33V24a4,4,0,0,0-4-4H24a2,2,0,0,1,0-4H40a4,4,0,0,0,0-8H35a2,2,0,0,1-2-2V2H31V6a4,4,0,0,0,4,4h5a2,2,0,0,1,0,4H24a4,4,0,0,0,0,8h5a2,2,0,0,1,2,2v2H29v4H18a16.314,16.314,0,0,0-1.766.1c-6.9.74-13.368,7.187-14.133,14.078A16,16,0,0,0,26.421,59.6a9.794,9.794,0,0,1,4.389-1.551,15.424,15.424,0,0,1,2.325-.008,9.868,9.868,0,0,1,4.458,1.568A16,16,0,0,0,61.9,44.173C61.133,37.282,54.661,30.835,47.764,30.1ZM31,28h2v2H31ZM56.435,55.334a13.991,13.991,0,0,1-17.788,2.575,11.8,11.8,0,0,0-5.369-1.863Q32.645,56,32,56c-.455,0-.9.019-1.348.054A11.763,11.763,0,0,0,25.364,57.9,14,14,0,0,1,4.089,44.4c.658-5.922,6.432-11.674,12.36-12.311A14.379,14.379,0,0,1,18,32H46a14.724,14.724,0,0,1,1.551.083c5.927.637,11.7,6.389,12.36,12.311A13.9,13.9,0,0,1,56.435,55.334Z" fill="#8E0B0B"></path><path xmlns="http://www.w3.org/2000/svg" d="M46,44a4,4,0,1,0-4-4A4,4,0,0,0,46,44Zm0-6a2,2,0,1,1-2,2A2,2,0,0,1,46,38Z" fill="#8E0B0B"></path><path xmlns="http://www.w3.org/2000/svg" d="M46,48a4,4,0,1,0,4,4A4,4,0,0,0,46,48Zm0,6a2,2,0,1,1,2-2A2,2,0,0,1,46,54Z" fill="#8E0B0B"></path><path xmlns="http://www.w3.org/2000/svg" d="M39,42a4,4,0,1,0,4,4A4,4,0,0,0,39,42Zm0,6a2,2,0,1,1,2-2A2,2,0,0,1,39,48Z" fill="#8E0B0B"></path><path xmlns="http://www.w3.org/2000/svg" d="M53,42a4,4,0,1,0,4,4A4,4,0,0,0,53,42Zm0,6a2,2,0,1,1,2-2A2,2,0,0,1,53,48Z" fill="#8E0B0B"></path></g><g id="SvgjsG4785" featurekey="0kuQ8p-0" transform="matrix(2.46835161068365,0,0,2.46835161068365,105.53164721231458,-1.070976582892957)" fill="#BF8319"><path d="M2.38 18.6 c1.8533 0.04 3.24 -0.4 4.16 -1.32 c0.82666 -0.84 1.16 -1.92 1 -3.24 s-0.75334 -2.44 -1.78 -3.36 c-0.98666 -0.89334 -2.1666 -1.36 -3.54 -1.4 z M2.2 8.08 c1.68 0.04 3.1334 0.6066 4.36 1.6999 c0.6 0.54666 1.0867 1.1767 1.46 1.89 s0.60668 1.4567 0.70002 2.23 c0.10666 0.81334 0.04332 1.5867 -0.19002 2.32 s-0.61668 1.3667 -1.15 1.9 c-1.1467 1.16 -2.8066 1.72 -4.98 1.68 l0 0.04 l-1.2 0.04 l-0.2 -11.78 l1.2 -0.04 l0 0.02 z M11.48 15.120000000000001 c1.28 0.12 2.3534 -0.05998 3.22 -0.53998 c0.78666 -0.44 1.2933 -1.0667 1.52 -1.88 c0.21334 -0.76 0.10668 -1.4867 -0.31998 -2.18 c-0.45334 -0.76 -1.1933 -1.2733 -2.22 -1.54 c-0.48 -0.13334 -0.87334 -0.20668 -1.18 -0.22002 c-0.26666 -0.01334 -0.56666 0.0066602 -0.9 0.06 c-0.01334 0.06666 -0.02 0.18 -0.02 0.34 l0 0.02 l0 0.02 l0 0.02 l0 0.02 l0 0.02 l0 0.02 l0 0.02 l0 0.02 l0 0.02 l0 0.02 l0 0.02 l0 0.02 l0 0.02 l0 0.02 l0 0.04 c-0.02666 1.2667 -0.05332 2.66 -0.07998 4.18 l0 0.02 l0 0.04 l0 0.02 l0 0.02 l0 0.02 l0 0.02 l0 0.02 l0 0.04 l0 0.02 l0 0.02 l0 0.02 l0 0.02 l0 0.02 l0 0.02 l0 0.02 l0 0.04 l0 0.02 l0 0.02 l0 0.02 l0 0.02 l0 0.02 l0 0.02 l0 0.02 l0 0.02 l0 0.02 l0 0.02 l0 0.04 l0 0.02 l0 0.02 l0 0.02 l0 0.02 l0 0.02 l0 0.02 l0 0.02 l0 0.02 l0 0.02 l0 0.02 l0 0.02 l0 0.02 l0 0.02 l-0.02 0.02 l0 0.02 l0 0.02 l0 0.04 l0 0.02 l0 0.02 l0 0.02 l0 0.02 l0 0.02 l0 0.02 l0 0.02 l0 0.02 l0 0.02 l0 0.02 l0 0.02 l0 0.02 l0 0.02 l0 0.04 l0 0.02 l0 0.02 l0 0.02 l0 0.02 l0 0.02 l0 0.02 l0 0.02 l0 0.02 l0 0.02 z M12.9 16.32 l0.020038 0.02 l0.02 0 l0.02 0.02 l0.02 0 l0.02 0 l0 0.02 l0.02 0 l0.02 0.02 l0.02 0 l0.02 0 l0.02 0.02 l0.02 0 l0.02 0.02 l0.02 0 l0.02 0.02 l0.02 0 l0.02 0 l0.02 0.02 l0.02 0.02 l0.02 0 l0.02 0.02 l0.02 0 l0.02 0 l0.02 0.02 l0.02 0 l0.02 0.02 l0.04 0 l0 0.02 l0.02 0 l0.02 0.02 l0.02 0 l0.02 0.02 l0.02 0 l0.02 0 l0.04 0.02 l1.6 0.74 c0.21334 0.09334 0.39334 0.17334 0.54 0.24 c0.05334 0.02666 0.1 0.04666 0.14 0.06 c0.02666 0.01334 0.04666 0.02 0.06 0.02 l-0.5 1.1 l-0.02 -0.02 l-0.04 0 l-0.14 -0.08 l-0.54 -0.24 l-1.6 -0.72 l-1.62 -0.74 l-0.04 -0.02 l0 0.88 c-0.01334 0.53334 -0.02668 0.99334 -0.04002 1.38 l0 0.38 l0 0.14 l-1.2 -0.02 l0 -0.14 l0 -0.38 l0 -0.04 l0 -0.02 l0 -0.02 l0 -0.02 l0.02 -0.02 l0 -0.02 l0 -0.02 l0 -0.02 l0 -0.02 l0 -0.02 l0 -0.02 l0 -0.02 l0 -0.02 l0 -0.02 l0 -0.02 l0 -0.02 l0 -0.02 l0 -0.02 l0 -0.02 l0 -0.02 l0 -0.02 l0 -0.02 l0 -0.02 l0 -0.02 l0 -0.02 l0 -0.02 l0 -0.02 l0 -0.02 l0 -0.02 l0 -0.02 l0 -0.02 l0 -0.02 l0 -0.02 l0 -0.02 l0 -0.02 l0 -0.02 l0 -0.02 l0 -0.02 l0 -0.02 l0 -0.02 l0 -0.02 l0 -0.02 l0 -0.02 l0 -0.02 l0 -0.02 l0 -0.02 l0 -0.02 l0 -0.02 l0 -0.02 l0 -0.02 l0 -0.02 l0 -0.02 l0 -0.02 l0 -0.02 l0 -0.02 l0 -0.02 l0 -0.02 l0 -0.02 l0 -0.02 l0 -0.02 l0 -0.02 l0.02 -0.02 l0 -0.02 l0 -0.02 l0 -0.02 l0 -0.02 l0 -0.02 l0 -0.02 l0.06 -4.2 l0.08 -4.18 l0 -0.04 l0 -0.04 l0 -0.02 l0 -0.04 l0 -0.04 l0 -0.02 l0 -0.04 l0 -0.02 l0 -0.04 l0 -0.02 l0 -0.02 l0 -0.04 l0 -0.02 l0 -0.02 l0 -0.04 l0 -0.02 l0 -0.02 l0 -0.02 l0 -0.02 l0 -0.04 l0 -0.02 l0.02 -0.02 l0 -0.02 l0 -0.02 l0 -0.02 l0 -0.02 l0 -0.02 l0 -0.02 l0 -0.02 l0 -0.02 l0 -0.02 l0 -0.02 l0 -0.02 l0 -0.02 l0 -0.02 l0 -0.02 l0 -0.02 l0 -0.02 l0 -0.02 l0 -0.02 l0 -0.02 l0 -0.02 l0 -0.02 l0 -0.02 l0 -0.02 l0 -0.02 l0 -0.02 l0 -0.02 l0 -0.02 l0 -0.02 l0 -0.02 l0 -0.02 l0 -0.02 l0 -0.02 l0 -0.02 l0 -0.02 l0 -0.02 l0 -0.02 l0 -0.04 c0 -0.16 0.0066602 -0.28666 0.02 -0.38 l0 -0.14 l1.2 0.02 l0 0.02 c0.33334 -0.04 0.64668 -0.05334 0.94002 -0.04 c0.38666 0.01334 0.86666 0.1 1.44 0.26 c1.3333 0.36 2.3134 1.0533 2.94 2.08 c0.58666 0.98666 0.73332 2.0266 0.43998 3.12 c-0.30666 1.1333 -1.0067 2 -2.1 2.6 c-0.69334 0.38666 -1.4867 0.62 -2.38 0.7 z M22.959999999999997 11.8 l-0.62 -2.92 c-0.56 -0.02666 -1.1133 -0.04666 -1.66 -0.06 l-0.28 3.06 z M19.559999999999995 7.58 l3.78 0.12002 l-0.02 0.08 l2.56 11.86 l-1.18 0.26 l-1.48 -6.9 c-0.97334 0.02666 -1.9533 0.05332 -2.94 0.07998 l-0.62 6.94 l-1.2 -0.12 l1.1 -12.04 l0 -0.28 z M40.48 8 c0.14666 1.64 0.16004 3.3134 0.040038 5.02 c-0.16 2.3866 -0.58666 4.0466 -1.28 4.98 c-0.57334 0.77334 -1.2467 1.2 -2.02 1.28 c-0.66666 0.06666 -1.3133 -0.14668 -1.94 -0.64002 c-0.41334 -0.32 -0.76 -0.72666 -1.04 -1.22 c-0.36 0.78666 -0.78 1.4067 -1.26 1.86 c-0.66666 0.62666 -1.36 0.86666 -2.08 0.72 c-0.76 -0.16 -1.44 -0.76666 -2.04 -1.82 c-0.77334 -1.3467 -1.2467 -3.08 -1.42 -5.2 c-0.14666 -1.8267 -0.07332 -3.62 0.22002 -5.38 l1.2 0.2 c-0.29334 1.6533 -0.36668 3.3466 -0.22002 5.08 c0.16 1.9467 0.58 3.5134 1.26 4.7 c0.42666 0.74666 0.84666 1.16 1.26 1.24 c0.30666 0.06666 0.63332 -0.06668 0.97998 -0.40002 c0.38666 -0.36 0.73 -0.87 1.03 -1.53 s0.48334 -1.2967 0.55 -1.91 l0.04 0 l1.14 0.12 l0 0.08 c-0.06666 0.4 0.0066796 0.84334 0.22002 1.33 s0.51334 0.88332 0.9 1.19 c0.37334 0.29334 0.74 0.42 1.1 0.38 c0.41334 -0.04 0.8 -0.30666 1.16 -0.8 c0.54666 -0.73334 0.89332 -2.18 1.04 -4.34 c0.12 -1.64 0.10666 -3.2534 -0.04 -4.84 z M60.699999999999996 8 c0.14666 1.64 0.16004 3.3134 0.040038 5.02 c-0.16 2.3866 -0.58666 4.0466 -1.28 4.98 c-0.57334 0.77334 -1.2467 1.2 -2.02 1.28 c-0.66666 0.06666 -1.3133 -0.14668 -1.94 -0.64002 c-0.41334 -0.32 -0.76 -0.72666 -1.04 -1.22 c-0.36 0.78666 -0.78 1.4067 -1.26 1.86 c-0.66666 0.62666 -1.36 0.86666 -2.08 0.72 c-0.76 -0.16 -1.44 -0.76666 -2.04 -1.82 c-0.77334 -1.3467 -1.2467 -3.08 -1.42 -5.2 c-0.14666 -1.8267 -0.07332 -3.62 0.22002 -5.38 l1.2 0.2 c-0.29334 1.6533 -0.36668 3.3466 -0.22002 5.08 c0.16 1.9467 0.58 3.5134 1.26 4.7 c0.42666 0.74666 0.84666 1.16 1.26 1.24 c0.30666 0.06666 0.63332 -0.06668 0.97998 -0.40002 c0.38666 -0.36 0.73 -0.87 1.03 -1.53 s0.48334 -1.2967 0.55 -1.91 l0.04 0 l1.14 0.12 l0 0.08 c-0.06666 0.4 0.0066796 0.84334 0.22002 1.33 s0.51334 0.88332 0.9 1.19 c0.37334 0.29334 0.74 0.42 1.1 0.38 c0.41334 -0.04 0.8 -0.30666 1.16 -0.8 c0.54666 -0.73334 0.89332 -2.18 1.04 -4.34 c0.12 -1.64 0.10666 -3.2534 -0.04 -4.84 z M64.06 7.640000000000001 l0.06 12.08 l-1.2 0.02 l-0.06 -12.1 l1.2 0 z M66.16 7.460000000000001 l6.88 0.06 l-0.02 1.2 l-3.3 -0.02 l0.48 11.22 l-1.2 0.06 l-0.48 -11.3 l-2.38 -0.02 z M81.94 7.720000000000001 l-1.46 12.42 l-1.2 -0.14 l0.38 -3.14 l-3.12 0.06 l0.34 2.72 l-1.2 0.16 l-1.42 -11.76 l1.2 -0.16 l0.94 7.84 l3.4 -0.06 l0.94 -8.08 z M91.17999999999999 8.02 c-0.21334 0.70666 -0.3667 1.6867 -0.46004 2.94 c-0.10666 1.4267 -0.08 2.7334 0.08 3.92 c0.2 1.3733 0.55334 2.3866 1.06 3.04 c0.52 0.66666 1.22 0.89332 2.1 0.67998 c0.36 -0.08 0.69666 -0.32666 1.01 -0.74 s0.57668 -0.94 0.79002 -1.58 c0.96 -2.8134 1.1867 -5.5734 0.68 -8.28 l1.2 -0.22 c0.53334 2.92 0.28668 5.8866 -0.73998 8.9 c-0.24 0.72 -0.54666 1.3267 -0.92 1.82 c-0.50666 0.69334 -1.0867 1.12 -1.74 1.28 c-1.3867 0.33334 -2.5 -0.04 -3.34 -1.12 c-0.64 -0.82666 -1.0667 -2.0334 -1.28 -3.62 c-0.17334 -1.2667 -0.20668 -2.66 -0.10002 -4.18 c0.09334 -1.3333 0.26668 -2.4 0.52002 -3.2 z M106.42 9.6 c-0.57334 -0.53334 -1.2599 -0.87336 -2.06 -1.02 c-0.85334 -0.14666 -1.5933 -0.02 -2.22 0.38 c-0.48 0.30666 -0.81334 0.84666 -1 1.62 c-0.17334 0.76 -0.14 1.42 0.1 1.98 c0.18666 0.4 0.51332 0.75334 0.97998 1.06 c0.30666 0.2 0.83332 0.45334 1.58 0.76 c0.04 0.02666 0.06666 0.04 0.08 0.04 c0.82666 0.33334 1.4333 0.62668 1.82 0.88002 c0.66666 0.45334 1.1467 1 1.44 1.64 c0.25334 0.6 0.27334 1.1533 0.06 1.66 s-0.60668 0.88666 -1.18 1.14 c-0.52 0.24 -1.0733 0.32 -1.66 0.24 s-1.0867 -0.31334 -1.5 -0.7 l0.8 -0.88 c0.24 0.21334 0.53334 0.34334 0.88 0.39 s0.67332 -0.0033398 0.97998 -0.15 c0.26666 -0.12 0.45 -0.28334 0.55 -0.49 s0.09 -0.45 -0.03 -0.73 c-0.18666 -0.42666 -0.52 -0.79332 -1 -1.1 c-0.32 -0.21334 -0.85334 -0.48 -1.6 -0.8 c-0.01334 0 -0.04 -0.0066602 -0.08 -0.02 c-0.4 -0.16 -0.70666 -0.29334 -0.92 -0.4 c-0.33334 -0.16 -0.62668 -0.32 -0.88002 -0.48 c-0.66666 -0.42666 -1.1333 -0.95332 -1.4 -1.58 c-0.36 -0.8 -0.42 -1.7067 -0.18 -2.72 c0.25334 -1.0933 0.76 -1.8867 1.52 -2.38 c0.89334 -0.56 1.9133 -0.74 3.06 -0.54 c1.04 0.18666 1.9333 0.63332 2.68 1.34 z" fill="#BF8319"></path></g><g id="SvgjsG4786" featurekey="Nh6iBa-0" transform="matrix(0.7396001908183942,0,0,0.7396001908183942,106.80184812818358,65.49737277464662)" fill="#000000"><path d="M1.64 7.460000000000001 l6.88 0.06 l-0.02 1.2 l-3.3 -0.02 l0.48 11.22 l-1.2 0.06 l-0.48 -11.3 l-2.38 -0.02 z M29.5176875 7.720000000000001 l-1.46 12.42 l-1.2 -0.14 l0.38 -3.14 l-3.12 0.06 l0.34 2.72 l-1.2 0.16 l-1.42 -11.76 l1.2 -0.16 l0.94 7.84 l3.4 -0.06 l0.94 -8.08 z M44.455375000000004 7.640000000000001 l0.06 12.08 l-1.2 0.02 l-0.06 -12.1 l1.2 0 z M64.9330625 20 l-0.08 0.04 l-5.42 -9.34 l1.22 9 l-1.2 0.16 l-1.64 -12.06 l1.2 -0.16 l0 0.04 l0.02 -0.02 l5.96 10.22 l0.58 -10.28 l1.2 0.06 l-0.7 12.4 z M82.39075000000003 16.78 l5.22 1.86 l-0.4 1.12 l-5.6 -2 l-0.04 2.2 l-1.2 -0.02 l0.2 -12.5 l1.2 0.02 c-0.04 2.7866 -0.08666 5.5734 -0.14 8.36 l6.64 -7.8 l0.92 0.76 z M105.32843750000002 17.6 c0.32 0.72 0.51332 1.4133 0.57998 2.08 c0.05334 0.45334 0.03334 0.86 -0.06 1.22 c-0.10666 0.46666 -0.32666 0.84 -0.66 1.12 l-0.78 -0.9 c0.28 -0.24 0.38666 -0.68 0.32 -1.32 c-0.06666 -0.54666 -0.23332 -1.12 -0.49998 -1.72 z M138.20381250000003 18.6 c1.8533 0.04 3.24 -0.4 4.16 -1.32 c0.82666 -0.84 1.16 -1.92 1 -3.24 s-0.75334 -2.44 -1.78 -3.36 c-0.98666 -0.89334 -2.1666 -1.36 -3.54 -1.4 z M138.02381250000002 8.08 c1.68 0.04 3.1334 0.6066 4.36 1.6999 c0.6 0.54666 1.0867 1.1767 1.46 1.89 s0.60668 1.4567 0.70002 2.23 c0.10666 0.81334 0.04332 1.5867 -0.19002 2.32 s-0.61668 1.3667 -1.15 1.9 c-1.1467 1.16 -2.8066 1.72 -4.98 1.68 l0 0.04 l-1.2 0.04 l-0.2 -11.78 l1.2 -0.04 l0 0.02 z M158.80150000000003 15.120000000000001 c1.28 0.12 2.3534 -0.05998 3.22 -0.53998 c0.78666 -0.44 1.2933 -1.0667 1.52 -1.88 c0.21334 -0.76 0.10668 -1.4867 -0.31998 -2.18 c-0.45334 -0.76 -1.1933 -1.2733 -2.22 -1.54 c-0.48 -0.13334 -0.87334 -0.20668 -1.18 -0.22002 c-0.26666 -0.01334 -0.56666 0.0066602 -0.9 0.06 c-0.01334 0.06666 -0.02 0.18 -0.02 0.34 l0 0.02 l0 0.02 l0 0.02 l0 0.02 l0 0.02 l0 0.02 l0 0.02 l0 0.02 l0 0.02 l0 0.02 l0 0.02 l0 0.02 l0 0.02 l0 0.02 l0 0.04 c-0.02666 1.2667 -0.05332 2.66 -0.07998 4.18 l0 0.02 l0 0.04 l0 0.02 l0 0.02 l0 0.02 l0 0.02 l0 0.02 l0 0.04 l0 0.02 l0 0.02 l0 0.02 l0 0.02 l0 0.02 l0 0.02 l0 0.02 l0 0.04 l0 0.02 l0 0.02 l0 0.02 l0 0.02 l0 0.02 l0 0.02 l0 0.02 l0 0.02 l0 0.02 l0 0.02 l0 0.04 l0 0.02 l0 0.02 l0 0.02 l0 0.02 l0 0.02 l0 0.02 l0 0.02 l0 0.02 l0 0.02 l0 0.02 l0 0.02 l0 0.02 l0 0.02 l-0.02 0.02 l0 0.02 l0 0.02 l0 0.04 l0 0.02 l0 0.02 l0 0.02 l0 0.02 l0 0.02 l0 0.02 l0 0.02 l0 0.02 l0 0.02 l0 0.02 l0 0.02 l0 0.02 l0 0.02 l0 0.04 l0 0.02 l0 0.02 l0 0.02 l0 0.02 l0 0.02 l0 0.02 l0 0.02 l0 0.02 l0 0.02 z M160.22150000000005 16.32 l0.020038 0.02 l0.02 0 l0.02 0.02 l0.02 0 l0.02 0 l0 0.02 l0.02 0 l0.02 0.02 l0.02 0 l0.02 0 l0.02 0.02 l0.02 0 l0.02 0.02 l0.02 0 l0.02 0.02 l0.02 0 l0.02 0 l0.02 0.02 l0.02 0.02 l0.02 0 l0.02 0.02 l0.02 0 l0.02 0 l0.02 0.02 l0.02 0 l0.02 0.02 l0.04 0 l0 0.02 l0.02 0 l0.02 0.02 l0.02 0 l0.02 0.02 l0.02 0 l0.02 0 l0.04 0.02 l1.6 0.74 c0.21334 0.09334 0.39334 0.17334 0.54 0.24 c0.05334 0.02666 0.1 0.04666 0.14 0.06 c0.02666 0.01334 0.04666 0.02 0.06 0.02 l-0.5 1.1 l-0.02 -0.02 l-0.04 0 l-0.14 -0.08 l-0.54 -0.24 l-1.6 -0.72 l-1.62 -0.74 l-0.04 -0.02 l0 0.88 c-0.01334 0.53334 -0.02668 0.99334 -0.04002 1.38 l0 0.38 l0 0.14 l-1.2 -0.02 l0 -0.14 l0 -0.38 l0 -0.04 l0 -0.02 l0 -0.02 l0 -0.02 l0.02 -0.02 l0 -0.02 l0 -0.02 l0 -0.02 l0 -0.02 l0 -0.02 l0 -0.02 l0 -0.02 l0 -0.02 l0 -0.02 l0 -0.02 l0 -0.02 l0 -0.02 l0 -0.02 l0 -0.02 l0 -0.02 l0 -0.02 l0 -0.02 l0 -0.02 l0 -0.02 l0 -0.02 l0 -0.02 l0 -0.02 l0 -0.02 l0 -0.02 l0 -0.02 l0 -0.02 l0 -0.02 l0 -0.02 l0 -0.02 l0 -0.02 l0 -0.02 l0 -0.02 l0 -0.02 l0 -0.02 l0 -0.02 l0 -0.02 l0 -0.02 l0 -0.02 l0 -0.02 l0 -0.02 l0 -0.02 l0 -0.02 l0 -0.02 l0 -0.02 l0 -0.02 l0 -0.02 l0 -0.02 l0 -0.02 l0 -0.02 l0 -0.02 l0 -0.02 l0 -0.02 l0 -0.02 l0 -0.02 l0 -0.02 l0 -0.02 l0.02 -0.02 l0 -0.02 l0 -0.02 l0 -0.02 l0 -0.02 l0 -0.02 l0 -0.02 l0.06 -4.2 l0.08 -4.18 l0 -0.04 l0 -0.04 l0 -0.02 l0 -0.04 l0 -0.04 l0 -0.02 l0 -0.04 l0 -0.02 l0 -0.04 l0 -0.02 l0 -0.02 l0 -0.04 l0 -0.02 l0 -0.02 l0 -0.04 l0 -0.02 l0 -0.02 l0 -0.02 l0 -0.02 l0 -0.04 l0 -0.02 l0.02 -0.02 l0 -0.02 l0 -0.02 l0 -0.02 l0 -0.02 l0 -0.02 l0 -0.02 l0 -0.02 l0 -0.02 l0 -0.02 l0 -0.02 l0 -0.02 l0 -0.02 l0 -0.02 l0 -0.02 l0 -0.02 l0 -0.02 l0 -0.02 l0 -0.02 l0 -0.02 l0 -0.02 l0 -0.02 l0 -0.02 l0 -0.02 l0 -0.02 l0 -0.02 l0 -0.02 l0 -0.02 l0 -0.02 l0 -0.02 l0 -0.02 l0 -0.02 l0 -0.02 l0 -0.02 l0 -0.02 l0 -0.02 l0 -0.02 l0 -0.04 c0 -0.16 0.0066602 -0.28666 0.02 -0.38 l0 -0.14 l1.2 0.02 l0 0.02 c0.33334 -0.04 0.64668 -0.05334 0.94002 -0.04 c0.38666 0.01334 0.86666 0.1 1.44 0.26 c1.3333 0.36 2.3134 1.0533 2.94 2.08 c0.58666 0.98666 0.73332 2.0266 0.43998 3.12 c-0.30666 1.1333 -1.0067 2 -2.1 2.6 c-0.69334 0.38666 -1.4867 0.62 -2.38 0.7 z M181.57918750000002 11.8 l-0.62 -2.92 c-0.56 -0.02666 -1.1133 -0.04666 -1.66 -0.06 l-0.28 3.06 z M178.1791875 7.58 l3.78 0.12002 l-0.02 0.08 l2.56 11.86 l-1.18 0.26 l-1.48 -6.9 c-0.97334 0.02666 -1.9533 0.05332 -2.94 0.07998 l-0.62 6.94 l-1.2 -0.12 l1.1 -12.04 l0 -0.28 z M209.796875 8 c0.14666 1.64 0.16004 3.3134 0.040038 5.02 c-0.16 2.3866 -0.58666 4.0466 -1.28 4.98 c-0.57334 0.77334 -1.2467 1.2 -2.02 1.28 c-0.66666 0.06666 -1.3133 -0.14668 -1.94 -0.64002 c-0.41334 -0.32 -0.76 -0.72666 -1.04 -1.22 c-0.36 0.78666 -0.78 1.4067 -1.26 1.86 c-0.66666 0.62666 -1.36 0.86666 -2.08 0.72 c-0.76 -0.16 -1.44 -0.76666 -2.04 -1.82 c-0.77334 -1.3467 -1.2467 -3.08 -1.42 -5.2 c-0.14666 -1.8267 -0.07332 -3.62 0.22002 -5.38 l1.2 0.2 c-0.29334 1.6533 -0.36668 3.3466 -0.22002 5.08 c0.16 1.9467 0.58 3.5134 1.26 4.7 c0.42666 0.74666 0.84666 1.16 1.26 1.24 c0.30666 0.06666 0.63332 -0.06668 0.97998 -0.40002 c0.38666 -0.36 0.73 -0.87 1.03 -1.53 s0.48334 -1.2967 0.55 -1.91 l0.04 0 l1.14 0.12 l0 0.08 c-0.06666 0.4 0.0066796 0.84334 0.22002 1.33 s0.51334 0.88332 0.9 1.19 c0.37334 0.29334 0.74 0.42 1.1 0.38 c0.41334 -0.04 0.8 -0.30666 1.16 -0.8 c0.54666 -0.73334 0.89332 -2.18 1.04 -4.34 c0.12 -1.64 0.10666 -3.2534 -0.04 -4.84 z M245.45225000000002 11.8 l-0.62 -2.92 c-0.56 -0.02666 -1.1133 -0.04666 -1.66 -0.06 l-0.28 3.06 z M242.05225000000002 7.58 l3.78 0.12002 l-0.02 0.08 l2.56 11.86 l-1.18 0.26 l-1.48 -6.9 c-0.97334 0.02666 -1.9533 0.05332 -2.94 0.07998 l-0.62 6.94 l-1.2 -0.12 l1.1 -12.04 l0 -0.28 z M267.96993750000007 20 l-0.08 0.04 l-5.42 -9.34 l1.22 9 l-1.2 0.16 l-1.64 -12.06 l1.2 -0.16 l0 0.04 l0.02 -0.02 l5.96 10.22 l0.58 -10.28 l1.2 0.06 l-0.7 12.4 z M284.267625 18.6 c1.8533 0.04 3.24 -0.4 4.16 -1.32 c0.82666 -0.84 1.16 -1.92 1 -3.24 s-0.75334 -2.44 -1.78 -3.36 c-0.98666 -0.89334 -2.1666 -1.36 -3.54 -1.4 z M284.087625 8.08 c1.68 0.04 3.1334 0.6066 4.36 1.6999 c0.6 0.54666 1.0867 1.1767 1.46 1.89 s0.60668 1.4567 0.70002 2.23 c0.10666 0.81334 0.04332 1.5867 -0.19002 2.32 s-0.61668 1.3667 -1.15 1.9 c-1.1467 1.16 -2.8066 1.72 -4.98 1.68 l0 0.04 l-1.2 0.04 l-0.2 -11.78 l1.2 -0.04 l0 0.02 z M333.76300000000003 8 c0.14666 1.64 0.16004 3.3134 0.040038 5.02 c-0.16 2.3866 -0.58666 4.0466 -1.28 4.98 c-0.57334 0.77334 -1.2467 1.2 -2.02 1.28 c-0.66666 0.06666 -1.3133 -0.14668 -1.94 -0.64002 c-0.41334 -0.32 -0.76 -0.72666 -1.04 -1.22 c-0.36 0.78666 -0.78 1.4067 -1.26 1.86 c-0.66666 0.62666 -1.36 0.86666 -2.08 0.72 c-0.76 -0.16 -1.44 -0.76666 -2.04 -1.82 c-0.77334 -1.3467 -1.2467 -3.08 -1.42 -5.2 c-0.14666 -1.8267 -0.07332 -3.62 0.22002 -5.38 l1.2 0.2 c-0.29334 1.6533 -0.36668 3.3466 -0.22002 5.08 c0.16 1.9467 0.58 3.5134 1.26 4.7 c0.42666 0.74666 0.84666 1.16 1.26 1.24 c0.30666 0.06666 0.63332 -0.06668 0.97998 -0.40002 c0.38666 -0.36 0.73 -0.87 1.03 -1.53 s0.48334 -1.2967 0.55 -1.91 l0.04 0 l1.14 0.12 l0 0.08 c-0.06666 0.4 0.0066796 0.84334 0.22002 1.33 s0.51334 0.88332 0.9 1.19 c0.37334 0.29334 0.74 0.42 1.1 0.38 c0.41334 -0.04 0.8 -0.30666 1.16 -0.8 c0.54666 -0.73334 0.89332 -2.18 1.04 -4.34 c0.12 -1.64 0.10666 -3.2534 -0.04 -4.84 z M348.42068750000004 7.640000000000001 l0.06 12.08 l-1.2 0.02 l-0.06 -12.1 l1.2 0 z M368.89837500000004 20 l-0.08 0.04 l-5.42 -9.34 l1.22 9 l-1.2 0.16 l-1.64 -12.06 l1.2 -0.16 l0 0.04 l0.02 -0.02 l5.96 10.22 l0.58 -10.28 l1.2 0.06 l-0.7 12.4 z"></path></g></svg>